<svg xmlns="http://www.w3.org/2000/svg" viewBox="0 0 240 240" role="img" aria-label="Sakura blossom">
  <defs>
    <radialGradient id="petal" cx="50%" cy="42%" r="62%">
      <stop offset="0" stop-color="#fff8f8"/>
      <stop offset="0.55" stop-color="#f5c4cf"/>
      <stop offset="1" stop-color="#d76b82"/>
    </radialGradient>
    <filter id="soft" x="-20%" y="-20%" width="140%" height="140%">
      <feGaussianBlur in="SourceAlpha" stdDeviation="1.6"/>
      <feOffset dx="0" dy="2" result="offsetblur"/>
      <feComponentTransfer>
        <feFuncA type="linear" slope="0.22"/>
      </feComponentTransfer>
      <feMerge>
        <feMergeNode/>
        <feMergeNode in="SourceGraphic"/>
      </feMerge>
    </filter>
  </defs>
  <path d="M30 178c43-10 82-32 117-66 20-19 38-41 62-51" fill="none" stroke="#8b463d" stroke-width="8" stroke-linecap="round" opacity="0.72"/>
  <path d="M58 166c24-16 37-32 47-55" fill="none" stroke="#8b463d" stroke-width="5" stroke-linecap="round" opacity="0.52"/>
  <path d="M141 110c21-3 38-11 54-26" fill="none" stroke="#8b463d" stroke-width="5" stroke-linecap="round" opacity="0.45"/>
  <g filter="url(#soft)">
    <g transform="translate(93 93)">
      <path d="M0-10c-13-23 7-39 21-24 13 14 4 31-15 35z" fill="url(#petal)" transform="rotate(0)"/>
      <path d="M0-10c-13-23 7-39 21-24 13 14 4 31-15 35z" fill="url(#petal)" transform="rotate(72)"/>
      <path d="M0-10c-13-23 7-39 21-24 13 14 4 31-15 35z" fill="url(#petal)" transform="rotate(144)"/>
      <path d="M0-10c-13-23 7-39 21-24 13 14 4 31-15 35z" fill="url(#petal)" transform="rotate(216)"/>
      <path d="M0-10c-13-23 7-39 21-24 13 14 4 31-15 35z" fill="url(#petal)" transform="rotate(288)"/>
      <circle r="6" fill="#9f2f2f"/>
      <circle r="2.5" fill="#f7d98a"/>
    </g>
    <g transform="translate(164 72) scale(0.7)">
      <path d="M0-10c-13-23 7-39 21-24 13 14 4 31-15 35z" fill="url(#petal)" transform="rotate(0)"/>
      <path d="M0-10c-13-23 7-39 21-24 13 14 4 31-15 35z" fill="url(#petal)" transform="rotate(72)"/>
      <path d="M0-10c-13-23 7-39 21-24 13 14 4 31-15 35z" fill="url(#petal)" transform="rotate(144)"/>
      <path d="M0-10c-13-23 7-39 21-24 13 14 4 31-15 35z" fill="url(#petal)" transform="rotate(216)"/>
      <path d="M0-10c-13-23 7-39 21-24 13 14 4 31-15 35z" fill="url(#petal)" transform="rotate(288)"/>
      <circle r="6" fill="#9f2f2f"/>
      <circle r="2.5" fill="#f7d98a"/>
    </g>
    <g transform="translate(52 171) scale(0.56)">
      <path d="M0-10c-13-23 7-39 21-24 13 14 4 31-15 35z" fill="url(#petal)" transform="rotate(0)"/>
      <path d="M0-10c-13-23 7-39 21-24 13 14 4 31-15 35z" fill="url(#petal)" transform="rotate(72)"/>
      <path d="M0-10c-13-23 7-39 21-24 13 14 4 31-15 35z" fill="url(#petal)" transform="rotate(144)"/>
      <path d="M0-10c-13-23 7-39 21-24 13 14 4 31-15 35z" fill="url(#petal)" transform="rotate(216)"/>
      <path d="M0-10c-13-23 7-39 21-24 13 14 4 31-15 35z" fill="url(#petal)" transform="rotate(288)"/>
      <circle r="6" fill="#9f2f2f"/>
      <circle r="2.5" fill="#f7d98a"/>
    </g>
  </g>
</svg>
